PathFileType	4	(X/Y/Z)	RBDS022\RBDS022runT35.trc
DataRate	CameraRate	NumFrames	NumMarkers	Units	OrigDataRate	OrigDataStartFrame	OrigNumFrames
150.000000	150.000000	4	33	mm	150.000000	1687	4500
Frame#	Time	L.ASIS			L.Heel.Bottom			L.Heel.Lateral			L.Heel.Top			L.Iliac.Crest			L.MT1			L.MT5			L.PSIS			L.Shank.Bottom.Lateral			L.Shank.Bottom.Medial			L.Shank.Top.Lateral			L.Shank.Top.Medial			L.Thigh.Bottom.Lateral			L.Thigh.Bottom.Medial			L.Thigh.Top.Lateral			L.Thigh.Top.Medial			R.ASIS			R.ASY			R.Heel.Bottom			R.Heel.Lateral			R.Heel.Top			R.Iliac.Crest			R.MT1			R.MT5			R.PSIS			R.Shank.Bottom.Lateral			R.Shank.Bottom.Medial			R.Shank.Top.Lateral			R.Shank.Top.Medial			R.Thigh.Bottom.Lateral			R.Thigh.Bottom.Medial			R.Thigh.Top.Lateral			R.Thigh.Top.Medial			
		X1	Y1	Z1	X2	Y2	Z2	X3	Y3	Z3	X4	Y4	Z4	X5	Y5	Z5	X6	Y6	Z6	X7	Y7	Z7	X8	Y8	Z8	X9	Y9	Z9	X10	Y10	Z10	X11	Y11	Z11	X12	Y12	Z12	X13	Y13	Z13	X14	Y14	Z14	X15	Y15	Z15	X16	Y16	Z16	X17	Y17	Z17	X18	Y18	Z18	X19	Y19	Z19	X20	Y20	Z20	X21	Y21	Z21	X22	Y22	Z22	X23	Y23	Z23	X24	Y24	Z24	X25	Y25	Z25	X26	Y26	Z26	X27	Y27	Z27	X28	Y28	Z28	X29	Y29	Z29	X30	Y30	Z30	X31	Y31	Z31	X32	Y32	Z32	X33	Y33	Z33	

1688	11.24666666666667	2235.814088502922	937.4471967574591	902.8822099014278	1857.812864610572	56.69595616560154	1028.547761608734	1889.291757509485	76.61787311600992	982.5964808426107	1874.164420894147	100.1423973122039	1031.656137535691	2160.147399066778	1016.283574024977	864.6810944535515	2077.063444328216	37.71147001425054	1053.775923467017	2034.907699230876	39.38990043240888	942.5116116330903	2075.541592344679	974.876813191617	993.6987434908726	1980.124650420175	174.8917312442169	956.8399203259835	1944.782835143667	203.3760003074798	988.8363392382072	2011.403434003279	244.4952866295962	931.4638659122141	1979.08475299401	272.7578786729127	963.9728353877638	2163.78891815429	566.2127674266975	882.9077142575035	2098.913192203227	570.7477348738205	915.8266366446783	2155.048576914042	671.3741237878746	853.6668640575484	2095.331019762768	676.8466916052337	889.2340366330344	2253.980540054872	927.7254845510803	1139.115652687374	2070.036834603699	172.4977465152441	1121.125921515558	1915.428659201394	285.9690670465733	1096.914538908932	1950.016339417999	281.569003606448	1142.954830894551	1954.568547986641	305.3012681419259	1092.606795907913	2194.803210830019	989.1686564193865	1187.490618748662	2046.667246715654	119.1518194205753	1083.89607597396	2032.793342427435	152.5416189563479	1191.98308486007	2086.913155306547	967.88463551131	1078.429850540038	2065.091535890224	323.1998484101233	1159.194544265086	2049.903204761016	356.5305522114971	1123.015628978002	2134.439502132443	370.3922708906825	1171.999803689211	2113.608131392948	404.679229902637	1137.117635735062	2329.098051091239	577.8811691490923	1190.625016138554	2271.593896257395	552.3504924743709	1157.873273450809	2279.891177583643	675.0234235803729	1206.1228666023	2221.322953991267	647.9629814161533	1182.477400692029	
1689	11.25333333333333	2237.249596617273	939.7238824364495	903.5817956205505	1836.128110804321	64.41057572093358	1028.723384267673	1868.161248517549	82.8412332489371	982.5368165294325	1853.764937191535	107.3326032594324	1031.382308039787	2163.275296564729	1019.373591322166	864.7191356051444	2053.785132583067	37.47646649995244	1053.617220452024	2011.860919303315	39.8200701863247	942.4201384945941	2076.68575053324	978.3126756216012	993.3686656190239	1960.225151782062	180.2246646441064	956.4732958455504	1925.546700339579	208.972224451383	988.9014866251993	1992.269765209482	249.4658161184603	931.199264212162	1960.485049581183	278.0273474170071	963.9858954156268	2152.404661491216	569.5456888495271	882.9044936262244	2087.7278783519	576.5525113426943	915.778771598572	2147.881683346496	675.0610419747258	854.0411272346304	2088.367517503825	682.7844069451534	889.5043506840922	2253.954903109295	931.6177621791132	1140.027770641989	2097.099395048668	162.454847595239	1121.020598277569	1934.568231390482	265.2593354718625	1099.256868008139	1969.746658032428	262.7274788788977	1145.001193496964	1972.359194995058	287.4007841433904	1094.881139170471	2192.910508530957	993.5881343284465	1188.103032999088	2077.335994907341	108.1752177795818	1083.181936406201	2061.949172928365	139.1164555555819	1191.72939602238	2087.10790968027	971.3930701355432	1078.356367479942	2082.368733477325	312.4400412412112	1160.245773574125	2064.792840743396	344.9448482642144	1124.325118135264	2148.767921944474	363.882717559108	1172.744474529245	2125.498728045585	396.9502118998381	1138.147433387565	2333.936367748098	584.4399399089122	1189.553268725913	2277.251245077788	557.9956596161876	1156.269039367727	2282.904048104388	680.4978279153494	1205.54431721585	2225.038155581879	652.5369722292414	1181.258648136081	
1690	11.26	2238.949397571039	942.2499894407433	904.2655591494394	1815.258095653532	73.26125343588889	1028.780589960409	1847.874695619673	89.93600124601815	982.3581457027893	1834.384593735959	115.5001125622375	1030.965400688262	2166.378956412668	1022.60878109457	864.9494937472831	2030.760205633526	37.37042728957586	1053.347587710301	1989.151293175509	40.45833529226102	942.2000274293284	2078.085334341039	981.9281593909365	993.1374498365332	1941.114034499396	186.3145728103553	955.9672560164663	1907.120055600135	215.2217901323993	988.9333190324419	1973.814791678185	255.257700800899	930.8546915347531	1942.559945403182	284.0213805561973	963.9877391471965	2141.377731299458	573.669651932678	882.8123077556623	2077.091178621929	583.1422990141257	915.805248019519	2141.080001794746	679.3645785711651	854.3614709928	2081.899588918312	689.3104085142015	889.7874523775259	2254.159464186652	935.8366001295728	1140.923271196649	2124.725158394069	152.825121597909	1120.695702590618	1955.000909513061	244.355075042187	1101.039943250708	1990.554098364665	243.7849642058155	1146.569642484265	1991.269655190007	269.2072852103736	1096.691961116846	2191.757269289885	998.5045158365062	1188.757627447452	2108.759681707106	97.83790973504685	1082.23315266809	2091.802000376269	126.2331818133621	1191.179617893925	2087.518183882844	975.204016757101	1078.388081373271	2100.041229262828	301.5851688524335	1160.97538938133	2080.181307433263	333.0348856853902	1125.238740119049	2163.083505180646	357.2303744609437	1173.283980444873	2137.488400204526	388.8426087082588	1138.881193204629	2337.952115107973	590.8763891154149	1188.388440860854	2281.942124795951	563.7353583302109	1154.647690202321	2285.429519065917	685.9897221381203	1204.933836390409	2228.174233353089	657.365548573634	1179.994937970888	
1691	11.26666666666667	2240.907632181941	944.9562639743566	904.9397247509254	1795.364435953878	83.20180668220269	1028.706058125024	1828.568060167587	97.86130893646934	982.0602459161191	1816.176100274491	124.5691681683702	1030.40662851157	2169.477272600923	1025.982782690974	865.3552850987253	2008.047565856868	37.42127826786305	1052.982775749193	1966.838996305103	41.34148099529848	941.8653346803634	2079.730032764535	985.6784567603871	992.9799441132151	1922.910363170596	193.0618321105098	955.3250615101881	1889.619075473578	222.0233238208849	988.931980730913	1956.166076528897	261.7760436459356	930.4494910106052	1925.42672800737	290.6441296695144	963.9904710817611	2130.784527351406	578.5012412400594	882.6520638825987	2067.082373099947	590.4144859777464	915.941012239621	2134.680440985741	684.2017338989888	854.6186994862534	2075.971660950356	696.3271550769647	890.1028043731019	2254.588513564559	940.3002580818865	1141.774824641918	2152.866929470705	143.7239545725669	1120.205446548322	1976.79150201882	223.4643485554465	1102.181499023623	2012.470716272637	224.93222556121	1147.590916223589	2011.363295915056	250.901023953017	1097.957253927487	2191.317233242311	1003.844680019436	1189.424378293303	2140.86359166279	88.26853926741515	1081.129616700134	2122.244492183215	114.0571941146612	1190.394252468045	2088.148603770045	979.2529345149761	1078.500804661683	2118.111715443001	290.7189456453411	1161.354622321051	2096.130264276918	320.8823633119111	1125.704293319652	2177.387523506166	350.4538557882454	1173.598226573534	2149.634975882882	380.3797356346751	1139.27310734855	2341.196405777292	597.0675889836301	1187.166120469126	2285.674144348784	569.4252126734197	1153.111597047962	2287.52020919298	691.3998914652828	1204.304381768282	2230.751391566874	662.3319169372393	1178.770270618677	
